HIERARCHY
ROOT Hips
{
  OFFSET 0.0 0.0 0.0
  CHANNELS 6 XPOSITION YPOSITION ZPOSITION ZROTATION XROTATION YROTATION 
  JOINT LeftUpLeg
  {
    OFFSET 0.089458 -0.0866707 0.00101652
    CHANNELS 3 ZROTATION XROTATION YROTATION 
    JOINT LeftLeg
    {
      OFFSET 0.0 -0.444227 0.013727
      CHANNELS 3 ZROTATION XROTATION YROTATION 
      JOINT LeftFoot
      {
        OFFSET -0.00253549 -0.420924 -0.0146059
        CHANNELS 3 ZROTATION XROTATION YROTATION 
        End Site
        {
          OFFSET -0.0004 -0.0441509 0.084991
        }
      }
    }
  }
  JOINT Spine
  {
    OFFSET 0.0 0.118905 0.0
    CHANNELS 3 ZROTATION XROTATION YROTATION 
    JOINT Spine1
    {
      OFFSET 0.0 0.256574 0.00127663
      CHANNELS 3 ZROTATION XROTATION YROTATION 
      End Site
      {
        OFFSET -0.0029 0.2150836 0.02525291
      }
      JOINT RightArm
      {
        OFFSET -0.162727 -0.05365632 0.00102123
        CHANNELS 3 ZROTATION XROTATION YROTATION 
        JOINT RightForeArm
        {
          OFFSET -0.26364 0.00099144 -0.0142434
          CHANNELS 3 ZROTATION XROTATION YROTATION 
          End Site
          {
            OFFSET -0.220324 0.00085362 0.0102216
          }
        }
      }
      JOINT LeftArm
      {
        OFFSET 0.162727 -0.0536563199 0.00102123
        CHANNELS 3 ZROTATION XROTATION YROTATION 
        JOINT LeftForeArm
        {
          OFFSET 0.262597 0.00099144 -0.0142434
          CHANNELS 3 ZROTATION XROTATION YROTATION 
          End Site
          {
            OFFSET 0.220902 0.00085362 0.0102216
          }
        }
      }
    }
  }
  JOINT RightUpLeg
  {
    OFFSET -0.089458 -0.0866707 0.00101652
    CHANNELS 3 ZROTATION XROTATION YROTATION 
    JOINT RightLeg
    {
      OFFSET 0.0 -0.444227 0.013727
      CHANNELS 3 ZROTATION XROTATION YROTATION 
      JOINT RightFoot
      {
        OFFSET 0.00253549 -0.420924 -0.0146059
        CHANNELS 3 ZROTATION XROTATION YROTATION 
        End Site
        {
          OFFSET 0.0004 -0.0441509 0.084991
        }
      }
    }
  }
}
MOTION
Frames: 7
Frame Time: 0.033333
1.95316735147 0.986705571653 0.0812349527929 -2.45448205254 -0.237741916257 -91.2480556508 -0.897707023819 -1.55601997265 1.66997004629 -0.416845004303 8.35304985491 18.4399005419 -2.55165600764 -32.1467531966 0.00442040263143 -0.270467006757 8.11742028137 -0.475252993464 0.647809985521 -3.02963008443 -0.563212009513 78.5044321313 -14.9555307633 4.83781487827 7.68250030201 38.9955990284 8.85869985822 -73.2945619079 -6.11895132646 -2.55716049978 -5.34958985372 37.1309983661 -13.6053995861 -1.38466002461 -1.86121993208 -4.01426012334 0.417906991997 10.0109997288 -11.090699811 3.83689035588 -33.6985858364 -0.0918221550352 
1.95315034599 0.98249084541 0.0811726789548 -2.45243470334 -0.241464742881 -91.2513546321 -0.897545767321 -1.55775548103 1.6700935233 -0.416493783169 8.35514672298 18.4399910419 -2.5510820583 -32.1465926872 0.00442661750326 -0.254886624889 8.11153351208 -0.473311458832 0.615290974635 -3.03485774047 -0.555408198221 78.5149437925 -14.9623063109 4.8337415242 7.68428212761 38.9920678206 8.85734406567 -73.283695077 -6.18781500121 -2.57228317893 -5.37093206044 37.204723428 -13.5631557198 -1.38651484786 -1.86265811379 -4.01767735236 0.422169243483 10.0108161674 -11.0848787823 3.83683272616 -33.6966119118 -0.0918414716639 
1.95319664928 0.982276418894 0.0810804804289 -2.4448032476 -0.248430201813 -91.2491143301 -0.899349257427 -1.57273045734 1.66665633732 -0.415707724445 8.36084566207 18.4402044854 -2.54509710504 -32.1447895172 0.0044722564571 -0.211099589461 8.10061118582 -0.46604381739 0.528338824519 -3.07042915222 -0.532308391727 78.5469500589 -15.0098563804 4.80811935019 7.62378116571 39.1401873029 8.90222353116 -73.2535261314 -6.34338237796 -2.61288075614 -5.42062254043 37.3818370633 -13.4644850995 -1.39533294224 -1.87083662499 -4.03025642638 0.435863399242 10.0057379218 -11.0763009185 3.83844635835 -33.6919298171 -0.0919304375459 
1.95332525411 0.982288938355 0.0809345619279 -2.42669897743 -0.266812081819 -91.2197991582 -0.91535975445 -1.60826014091 1.64176061796 -0.405223170626 8.36797381824 18.440896042 -2.54066239128 -32.1406162717 0.00458064360513 -0.174988032473 8.10727830423 -0.465793288185 0.470801737838 -3.15249750364 -0.521351434277 78.5910184394 -15.0670114034 4.76411457581 7.46514233828 39.4788144216 9.03136618666 -73.2256316388 -6.34237407128 -2.61426280223 -5.42203553581 37.4077405558 -13.4590013114 -1.41245494583 -1.88748030189 -4.04815237578 0.44926897951 9.99114949148 -11.0885815986 3.84986984974 -33.6864827412 -0.092024039152 
1.95352902998 0.982295585895 0.0807409944062 -2.41298523824 -0.29460089322 -91.1688937583 -0.948148824613 -1.6472159114 1.59244462445 -0.377267926724 8.3785947624 18.4429416837 -2.54975678816 -32.1352067618 0.00457268074848 -0.155488549424 8.16224083648 -0.490413612183 0.475964240272 -3.28363521471 -0.546104946963 78.6483442171 -14.982059218 4.72602517212 7.35058469797 39.5155301034 9.17727610281 -73.2082419772 -6.09275114769 -2.51800558659 -5.337499992 37.1659177082 -13.6157319547 -1.42997598187 -1.90197865907 -4.06171499703 0.45013614673 9.97634932532 -11.1251427475 3.87391510382 -33.6805370615 -0.0919024097579 
1.9537964796 0.9822818917 0.080604226544 -2.42430947844 -0.313541434675 -91.1239442833 -0.974263412574 -1.66953334107 1.55477751855 -0.352496298028 8.40538276433 18.438855523 -2.53634229663 -32.1474567061 0.0059154878518 -0.100021343567 8.28584676989 -0.533467122647 0.442355947616 -3.47243914573 -0.581555976633 78.7260649397 -14.6645715348 4.69240996924 7.39930529109 38.866686038 9.28071675647 -73.1742822766 -5.84664363708 -2.37182929306 -5.2446414358 36.908364935 -13.7835582404 -1.44009448024 -1.90225741616 -4.07059125475 0.443843274668 9.97907542457 -11.1587370329 3.92461645181 -33.6792939671 -0.0889477259519 
1.95410863925 0.982231278993 0.0805756910884 -2.45940064252 -0.317875696631 -91.0919994886 -0.975877578374 -1.68324078368 1.55624259413 -0.355948638489 8.46616034888 18.4101482379 -2.5126887112 -32.1831717653 0.00703807138019 0.00751811728548 8.46701924517 -0.574912603809 0.315120569075 -3.70910135849 -0.598515603146 78.8003159262 -14.2243163239 4.636342227 7.49900812373 37.9538619912 9.39209835881 -73.1081592153 -5.73428830589 -2.24155367993 -5.20864591199 36.7676562079 -13.8575530948 -1.44868269607 -1.89405820095 -4.08763129607 0.448107420464 10.0116221297 -11.1721865292 3.96942505408 -33.7057609502 -0.0858052919849 
